# 3ds Max Wavefront OBJ Exporter v0.99 - (c)2007 guruware
# File Created: 18.07.2026 21:00:19

#
# object Sphere__17_
#

v  -0.8794 -29.6683 -20.8335
v  5.2648 -31.5334 -21.1132
v  5.1302 -32.1701 -14.6063
v  0.2488 -25.3836 -31.9823
v  -6.6883 -27.1710 -14.6063
v  11.7717 -32.9455 -14.6063
v  5.2648 -31.5334 -8.0994
v  11.7717 -32.1701 -21.2478
v  -8.5822 -20.3538 -30.4328
v  -10.0612 -21.8328 -25.8171
v  -7.1935 -18.9652 -33.5715
v  -4.0549 -20.3538 -34.9601
v  -11.0905 -22.8622 -20.4087
v  0.5609 -21.8328 -36.4391
v  -11.4559 -23.2275 -14.6063
v  5.9693 -22.8622 -37.4685
v  -11.0905 -22.8622 -8.8039
v  11.7717 -23.2275 -37.8338
v  17.7158 -26.7241 -32.7590
v  -10.0612 -21.8328 -3.3955
v  17.5740 -22.8622 -37.4685
v  0.2488 -25.3836 2.7697
v  -8.5822 -20.3538 1.2202
v  22.9824 -21.8328 -36.4391
v  17.9988 -29.6683 -27.2573
v  18.4132 -32.1701 -14.6063
v  24.6603 -30.2146 -14.6063
v  30.2316 -27.1710 -14.6063
v  29.1477 -25.3836 -26.1292
v  34.9992 -23.2275 -14.6063
v  34.6338 -22.8622 -20.4087
v  33.6045 -21.8328 -25.8171
v  32.1255 -20.3538 -30.4328
v  27.5982 -20.3538 -34.9601
v  30.7369 -18.9652 -33.5715
v  11.7717 -32.1701 -7.9648
v  18.2785 -31.5334 -8.0994
v  23.8918 -28.0220 -2.4861
v  11.7717 -27.1710 3.8536
v  17.5740 -22.8622 8.2559
v  11.7716 -23.2275 8.6212
v  5.9693 -22.8622 8.2559
v  0.5609 -21.8328 7.2265
v  -4.0549 -20.3538 5.7475
v  -7.1935 -18.9652 4.3589
v  22.9824 -21.8328 7.2265
v  27.5982 -20.3538 5.7475
v  30.7369 -18.9652 4.3589
v  32.1255 -20.3538 1.2202
v  33.6045 -21.8328 -3.3955
v  34.6338 -22.8622 -8.8039
v  5.2427 31.5749 -21.1353
v  11.7717 32.9455 -14.6063
v  11.7717 32.2113 -21.2702
v  -0.3896 28.0551 -26.7676
v  5.1077 32.2113 -14.6063
v  -4.1019 20.3662 -35.0293
v  0.5232 21.8474 -36.5133
v  -7.2600 18.9700 -33.6379
v  -8.6513 20.3662 -30.4798
v  11.7717 30.2506 -27.5391
v  5.9499 22.8791 -37.5447
v  -10.1353 21.8474 -25.8547
v  17.7360 26.7569 -32.8235
v  11.7717 23.2455 -37.9114
v  -11.1668 22.8791 -20.4281
v  17.5934 22.8791 -37.5447
v  -11.5334 23.2455 -14.6063
v  -6.4455 26.7569 -8.6419
v  23.3326 25.4100 -32.0439
v  23.0201 21.8474 -36.5133
v  -11.1668 22.8791 -8.7845
v  -10.1353 21.8474 -3.3579
v  -8.6513 20.3662 1.2672
v  -4.1019 20.3662 5.8167
v  -7.2600 18.9700 4.4253
v  0.5232 21.8474 7.3007
v  5.9499 22.8791 8.3321
v  11.7717 27.2038 3.9189
v  11.7716 23.2455 8.6988
v  17.5934 22.8791 8.3321
v  23.0201 21.8474 7.3007
v  -0.9213 29.7043 -8.3584
v  11.7717 32.2113 -7.9424
v  27.6452 20.3662 5.8167
v  23.9329 28.0551 -2.4450
v  30.8033 18.9700 4.4253
v  32.1946 20.3662 1.2672
v  18.3006 31.5749 -8.0773
v  33.6786 21.8474 -3.3579
v  34.7101 22.8791 -8.7845
v  18.4356 32.2113 -14.6063
v  24.7044 30.2506 -14.6063
v  30.2969 27.2038 -14.6063
v  35.0767 23.2455 -14.6063
v  32.1946 20.3662 -30.4798
v  30.8033 18.9700 -33.6379
v  27.6452 20.3662 -35.0293
v  33.6786 21.8474 -25.8547
v  34.7101 22.8791 -20.4281
v  -8.5822 -15.8265 5.7475
v  -13.6120 -11.5229 2.7697
v  -10.0612 -11.2108 7.2265
v  -14.9525 -18.1527 -8.6621
v  -11.0905 -5.8024 8.2559
v  -11.5242 0.0000 8.6896
v  -18.4429 -12.8886 -14.6063
v  -11.1668 5.7659 8.3321
v  -15.0438 5.9089 3.6109
v  -10.1353 11.1944 7.3007
v  -16.2503 -12.1202 -26.7265
v  -8.6513 15.8252 5.8167
v  -16.3311 12.1070 -2.4450
v  -8.5822 -15.8265 -34.9601
v  -10.0612 -11.2108 -36.4391
v  -11.0905 -5.8024 -37.4685
v  -13.6958 11.5080 -32.0439
v  -11.5334 -0.0582 -37.9114
v  -11.1668 5.7659 -37.5447
v  -15.0438 18.1564 -8.6419
v  -15.0438 18.1564 -20.5707
v  -10.1353 11.1944 -36.5133
v  -8.6513 15.8252 -35.0293
v  32.1255 -15.8265 5.7475
v  29.1477 -11.5229 10.7773
v  33.6045 -11.2108 7.2265
v  17.9988 -12.6510 15.0620
v  34.6338 -5.8024 8.2559
v  35.0676 0.0000 8.6896
v  5.8275 -18.1527 12.1178
v  34.7101 5.7659 8.3321
v  29.9888 5.9089 12.2092
v  33.6786 11.1944 7.3007
v  -0.3485 -12.1202 13.4157
v  32.1946 15.8252 5.8167
v  23.9329 12.1070 13.4964
v  -6.3810 -5.9442 12.1178
v  -6.4455 5.9089 12.2092
v  17.7361 18.1564 12.2092
v  5.8072 18.1564 12.2092
v  38.9427 -18.4599 -14.6063
v  39.7936 -12.1202 -2.4861
v  41.9863 -12.8886 -14.6063
v  43.9417 -6.6415 -14.6063
v  44.0840 -0.0000 -8.1790
v  44.7171 -0.0000 -14.6063
v  38.4958 -5.9442 3.5464
v  44.0357 6.6087 -14.6063
v  42.0712 12.8790 -14.6063
v  41.5249 12.6406 -8.3584
v  38.5871 5.9089 3.6109
v  39.0339 18.4641 -14.6063
v  37.2391 17.3786 -3.0453
v  32.1255 -15.8265 -34.9601
v  37.1553 -11.5229 -31.9823
v  33.6045 -11.2108 -36.4391
v  34.6338 -5.8024 -37.4685
v  39.0339 -0.0582 -33.1315
v  35.0767 -0.0582 -37.9114
v  41.4399 -6.2272 -27.2573
v  34.7101 5.7659 -37.5447
v  33.6786 11.1944 -36.5133
v  41.5249 6.1926 -27.2992
v  32.1946 15.8252 -35.0293
v  37.2391 17.3786 -26.1673
v  -5.6044 -11.5230 -39.9899
v  5.8275 -18.1527 -41.3304
v  -6.7536 -0.0582 -41.8685
v  11.7717 -12.8886 -44.8209
v  23.8918 -12.1202 -42.6283
v  -0.3896 12.1070 -42.7090
v  29.2093 11.5081 -40.0737
v  5.8073 18.1564 -41.4218
v  17.7360 18.1564 -41.4218
v  -10.1537 -27.6895 7.6527
v  -4.4193 -29.4301 7.3917
v  -4.5449 -30.0244 13.4646
v  -9.1008 -23.6906 -2.7525
v  -15.5751 -25.3587 13.4646
v  1.6535 -30.7480 13.4646
v  -4.4193 -29.4301 19.5375
v  1.6535 -30.0244 7.2661
v  -17.3427 -18.9962 -1.3064
v  -18.7230 -20.3766 3.0015
v  -16.0467 -17.7002 -4.2357
v  -13.1174 -18.9962 -5.5317
v  -19.6838 -21.3373 8.0492
v  -8.8095 -20.3766 -6.9120
v  -20.0247 -21.6783 13.4646
v  -3.7618 -21.3373 -7.8727
v  -19.6838 -21.3373 18.8799
v  1.6535 -21.6783 -8.2137
v  7.4654 -27.6895 1.6574
v  -18.7230 -20.3766 23.9276
v  7.0689 -21.3373 -7.8727
v  -9.1008 -23.6906 29.6816
v  -17.3427 -18.9962 28.2355
v  12.1166 -20.3766 -6.9120
v  7.8521 -30.0244 13.4646
v  13.6825 -28.1993 13.4646
v  18.8822 -25.3587 13.4646
v  17.8706 -23.6906 2.7103
v  23.3318 -21.6783 13.4646
v  22.9909 -21.3373 8.0492
v  22.0301 -20.3766 3.0015
v  20.6498 -18.9962 -1.3064
v  16.4245 -18.9962 -5.5317
v  19.3538 -17.7002 -4.2357
v  1.6535 -30.0244 19.6631
v  7.7264 -29.4301 19.5375
v  12.9653 -26.1530 24.7763
v  1.6535 -25.3587 30.6932
v  7.0689 -21.3373 34.8019
v  1.6535 -21.6783 35.1429
v  -3.7618 -21.3373 34.8019
v  -8.8095 -20.3766 33.8412
v  -13.1174 -18.9962 32.4608
v  -16.0467 -17.7002 31.1648
v  12.1166 -20.3766 33.8412
v  16.4245 -18.9962 32.4608
v  19.3538 -17.7002 31.1648
v  20.6498 -18.9962 28.2355
v  22.0301 -20.3766 23.9276
v  22.9909 -21.3373 18.8799
v  -4.4400 29.4689 7.3711
v  1.6535 30.7481 13.4646
v  1.6535 30.0628 7.2451
v  -9.6966 26.1839 2.1144
v  -4.5660 30.0628 13.4646
v  -13.1612 19.0078 -5.5962
v  -8.8446 20.3902 -6.9812
v  -16.1087 17.7048 -4.2977
v  -17.4072 19.0078 -1.3502
v  1.6535 28.2330 1.3944
v  -3.7799 21.3531 -7.9439
v  -18.7923 20.3903 2.9664
v  7.2201 24.9723 -3.5375
v  1.6536 21.6951 -8.2861
v  -19.7549 21.3531 8.0311
v  7.0870 21.3531 -7.9439
v  -20.0971 21.6951 13.4646
v  -15.3486 24.9723 19.0312
v  12.4434 23.7152 -2.8100
v  12.1517 20.3902 -6.9812
v  -19.7549 21.3531 18.8980
v  -18.7923 20.3903 23.9627
v  -17.4072 19.0078 28.2793
v  -13.1612 19.0078 32.5254
v  -16.1087 17.7048 31.2268
v  -8.8446 20.3903 33.9104
v  -3.7799 21.3531 34.8730
v  1.6535 25.3894 30.7542
v  1.6535 21.6951 35.2152
v  7.0870 21.3531 34.8730
v  12.1517 20.3903 33.9104
v  -10.1928 27.7231 19.2957
v  1.6535 30.0628 19.6840
v  16.4683 19.0078 32.5254
v  13.0037 26.1839 24.8147
v  19.4158 17.7048 31.2268
v  20.7143 19.0078 28.2793
v  7.7470 29.4689 19.5581
v  22.0993 20.3903 23.9627
v  23.0620 21.3531 18.8980
v  7.8730 30.0628 13.4646
v  13.7237 28.2330 13.4646
v  18.9432 25.3894 13.4646
v  23.4042 21.6951 13.4646
v  20.7143 19.0078 -1.3502
v  19.4158 17.7048 -4.2977
v  16.4683 19.0078 -5.5962
v  22.0993 20.3903 2.9664
v  23.0620 21.3531 8.0311
v  -17.3427 -14.7709 32.4608
v  -22.0370 -10.7544 29.6816
v  -18.7230 -10.4630 33.8412
v  -23.2881 -16.9419 19.0123
v  -19.6838 -5.4154 34.8019
v  -20.0885 0.0000 35.2067
v  -19.7549 5.3813 34.8730
v  -23.3734 5.5148 30.4667
v  -18.7923 10.4477 33.9104
v  -24.4994 -11.3118 2.1528
v  -17.4072 14.7697 32.5254
v  -24.5748 11.2995 24.8147
v  -17.3427 -14.7709 -5.5317
v  -18.7230 -10.4630 -6.9120
v  -19.6838 -5.4154 -7.8727
v  -22.1152 10.7404 -2.8100
v  -20.0971 -0.0543 -8.2861
v  -19.7549 5.3813 -7.9439
v  -23.3734 16.9454 19.0312
v  -23.3734 16.9454 7.8980
v  -18.7923 10.4477 -6.9812
v  -17.4072 14.7697 -5.5962
v  20.6498 -14.7709 32.4608
v  17.8706 -10.7543 37.1551
v  22.0301 -10.4630 33.8412
v  7.4654 -11.8072 41.1540
v  22.9909 -5.4154 34.8019
v  23.3956 0.0000 35.2067
v  -3.8941 -16.9419 38.4062
v  23.0620 5.3813 34.8730
v  18.6557 5.5148 38.4915
v  22.0993 10.4477 33.9104
v  20.7143 14.7697 32.5254
v  13.0037 11.2995 39.6929
v  -15.2884 -5.5477 38.4062
v  -15.3486 5.5148 38.4915
v  7.2201 16.9454 38.4915
v  -3.9130 16.9454 38.4915
v  27.0123 -17.2287 13.4646
v  27.8065 -11.3118 24.7763
v  29.8529 -12.0290 13.4646
v  31.6779 -6.1985 13.4646
v  31.8107 0.0000 19.4632
v  32.4016 0.0000 13.4646
v  26.5952 -5.5477 30.4065
v  31.7656 6.1679 13.4646
v  29.9321 12.0200 13.4646
v  29.4223 11.7975 19.2957
v  26.6805 5.5148 30.4667
v  27.0974 17.2326 13.4646
v  25.4223 16.2194 24.2545
v  20.6498 -14.7709 -5.5317
v  26.5952 -16.9419 7.9169
v  22.0301 -10.4630 -6.9120
v  22.9909 -5.4154 -7.8727
v  27.0974 -0.0543 -3.8251
v  23.4042 -0.0543 -8.2861
v  23.0620 5.3813 -7.9439
v  31.7656 -0.0543 7.2451
v  22.0993 10.4477 -6.9812
v  20.7143 14.7697 -5.5962
v  25.4223 16.2194 2.6747
v  -14.5635 -10.7544 -10.2260
v  -15.6361 -0.0543 -11.9793
v  1.6535 -12.0290 -14.7348
v  12.9653 -11.3118 -12.6884
v  -9.6966 11.2995 -12.7638
v  17.9281 10.7405 -10.3042
v  -3.9130 16.9454 -11.5624
v  7.2201 16.9454 -11.5624
v  -22.2967 -29.6683 -24.4555
v  -16.1526 -31.5334 -24.7352
v  -16.2871 -32.1701 -18.2283
v  -21.1685 -25.3836 -35.6043
v  -28.1056 -27.1710 -18.2283
v  -9.6457 -32.9455 -18.2283
v  -16.1526 -31.5334 -11.7214
v  -9.6457 -32.1701 -24.8698
v  -29.9995 -20.3538 -34.0549
v  -31.4785 -21.8328 -29.4391
v  -28.6109 -18.9652 -37.1935
v  -25.4722 -20.3538 -38.5821
v  -32.5079 -22.8622 -24.0307
v  -20.8565 -21.8328 -40.0611
v  -32.8732 -23.2275 -18.2283
v  -15.4480 -22.8622 -41.0905
v  -32.5079 -22.8622 -12.4260
v  -9.6457 -23.2275 -41.4559
v  -3.7015 -26.7241 -36.3810
v  -31.4785 -21.8328 -7.0176
v  -3.8433 -22.8622 -41.0905
v  -21.1685 -25.3836 -0.8523
v  -29.9995 -20.3538 -2.4018
v  1.5651 -21.8328 -40.0611
v  -3.4185 -29.6683 -30.8794
v  -3.0042 -32.1701 -18.2283
v  3.2430 -30.2146 -18.2283
v  8.8143 -27.1710 -18.2283
v  7.7303 -25.3836 -29.7512
v  13.5819 -23.2275 -18.2283
v  13.2165 -22.8622 -24.0307
v  12.1871 -21.8328 -29.4391
v  10.7081 -20.3538 -34.0549
v  6.1809 -20.3538 -38.5821
v  9.3195 -18.9652 -37.1935
v  -9.6457 -32.1701 -11.5869
v  -3.1388 -31.5334 -11.7214
v  2.4745 -28.0220 -6.1082
v  -9.6457 -27.1710 0.2316
v  -3.8433 -22.8622 4.6339
v  -9.6457 -23.2275 4.9992
v  -15.4480 -22.8622 4.6339
v  -20.8565 -21.8328 3.6045
v  -25.4722 -20.3538 2.1255
v  -28.6109 -18.9652 0.7369
v  1.5651 -21.8328 3.6045
v  6.1809 -20.3538 2.1255
v  9.3195 -18.9652 0.7369
v  10.7081 -20.3538 -2.4018
v  12.1871 -21.8328 -7.0176
v  13.2165 -22.8622 -12.4260
v  -16.1746 31.5749 -24.7573
v  -9.6457 32.9455 -18.2284
v  -9.6457 32.2113 -24.8923
v  -21.8069 28.0551 -30.3896
v  -16.3097 32.2113 -18.2284
v  -25.5192 20.3662 -38.6513
v  -20.8941 21.8474 -40.1353
v  -28.6773 18.9700 -37.2600
v  -30.0686 20.3662 -34.1019
v  -9.6457 30.2506 -31.1611
v  -15.4674 22.8791 -41.1668
v  -31.5526 21.8474 -29.4768
v  -3.6813 26.7569 -36.4455
v  -9.6457 23.2455 -41.5334
v  -32.5841 22.8791 -24.0501
v  -3.8239 22.8791 -41.1668
v  -32.9507 23.2455 -18.2284
v  -27.8628 26.7569 -12.2639
v  1.9153 25.4100 -35.6660
v  1.6028 21.8474 -40.1353
v  -32.5841 22.8791 -12.4066
v  -31.5526 21.8474 -6.9799
v  -30.0686 20.3662 -2.3548
v  -25.5192 20.3662 2.1946
v  -28.6773 18.9700 0.8033
v  -20.8941 21.8474 3.6786
v  -15.4674 22.8791 4.7101
v  -9.6457 27.2038 0.2969
v  -9.6457 23.2455 5.0767
v  -3.8239 22.8791 4.7101
v  1.6028 21.8474 3.6786
v  -22.3386 29.7043 -11.9805
v  -9.6457 32.2113 -11.5644
v  6.2278 20.3662 2.1946
v  2.5156 28.0551 -6.0671
v  9.3860 18.9700 0.8033
v  10.7773 20.3662 -2.3548
v  -3.1167 31.5749 -11.6994
v  12.2613 21.8474 -6.9799
v  13.2928 22.8791 -12.4066
v  -2.9817 32.2113 -18.2284
v  3.2871 30.2506 -18.2284
v  8.8796 27.2038 -18.2284
v  13.6594 23.2455 -18.2284
v  10.7773 20.3662 -34.1019
v  9.3860 18.9700 -37.2600
v  6.2278 20.3662 -38.6513
v  12.2613 21.8474 -29.4768
v  13.2928 22.8791 -24.0501
v  -29.9995 -15.8265 2.1255
v  -35.0293 -11.5229 -0.8523
v  -31.4785 -11.2108 3.6045
v  -36.3698 -18.1527 -12.2842
v  -32.5079 -5.8024 4.6339
v  -32.9416 0.0000 5.0675
v  -39.8603 -12.8886 -18.2283
v  -32.5841 5.7659 4.7101
v  -36.4612 5.9089 -0.0112
v  -31.5526 11.1944 3.6786
v  -37.6677 -12.1202 -30.3485
v  -30.0686 15.8252 2.1946
v  -37.7484 12.1070 -6.0671
v  -29.9995 -15.8265 -38.5821
v  -31.4785 -11.2108 -40.0612
v  -32.5079 -5.8024 -41.0905
v  -35.1131 11.5080 -35.6660
v  -32.9507 -0.0582 -41.5334
v  -32.5841 5.7659 -41.1668
v  -36.4612 18.1564 -12.2639
v  -36.4612 18.1564 -24.1927
v  -31.5526 11.1944 -40.1353
v  -30.0686 15.8252 -38.6513
v  10.7081 -15.8265 2.1255
v  7.7303 -11.5229 7.1553
v  12.1871 -11.2108 3.6045
v  -3.4185 -12.6510 11.4399
v  13.2165 -5.8024 4.6339
v  13.6502 0.0000 5.0675
v  -15.5898 -18.1527 8.4958
v  13.2928 5.7659 4.7101
v  8.5715 5.9089 8.5871
v  12.2613 11.1944 3.6786
v  -21.7658 -12.1202 9.7936
v  10.7773 15.8252 2.1946
v  2.5156 12.1070 9.8744
v  -27.7983 -5.9442 8.4958
v  -27.8628 5.9089 8.5871
v  -3.6813 18.1564 8.5871
v  -15.6101 18.1564 8.5871
v  17.5253 -18.4599 -18.2283
v  18.3763 -12.1202 -6.1082
v  20.5689 -12.8886 -18.2283
v  22.5244 -6.6415 -18.2283
v  22.6666 -0.0000 -11.8010
v  23.2998 -0.0000 -18.2283
v  17.0785 -5.9442 -0.0757
v  22.6184 6.6087 -18.2283
v  20.6539 12.8790 -18.2283
v  20.1076 12.6406 -11.9805
v  17.1698 5.9089 -0.0112
v  17.6165 18.4641 -18.2283
v  15.8218 17.3786 -6.6674
v  10.7081 -15.8265 -38.5821
v  15.7379 -17.3760 -29.7512
v  12.1871 -11.2108 -40.0612
v  17.0785 -5.9442 -36.3810
v  13.2165 -5.8024 -41.0905
v  13.6594 -0.0582 -41.5334
v  13.2928 5.7659 -41.1668
v  22.6184 -0.0582 -24.8923
v  12.2613 11.1944 -40.1353
v  10.7773 15.8252 -38.6513
v  15.8218 17.3786 -29.7893
v  -27.0217 -11.5230 -43.6120
v  -15.5899 -18.1527 -44.9525
v  -28.1709 -0.0582 -45.4906
v  -9.6457 -12.8886 -48.4429
v  2.4745 -12.1202 -46.2503
v  -21.8069 12.1070 -46.3311
v  7.7919 11.5081 -43.6958
v  -15.6100 18.1564 -45.0438
v  -3.6813 18.1564 -45.0438
v  -33.8938 -27.6895 2.4165
v  -28.1595 -29.4301 2.1555
v  -28.2851 -30.0244 8.2284
v  -32.8409 -23.6906 -7.9887
v  -39.3153 -25.3587 8.2284
v  -22.0866 -30.7480 8.2284
v  -28.1595 -29.4301 14.3012
v  -22.0866 -30.0244 2.0299
v  -41.0828 -18.9962 -6.5426
v  -42.4632 -20.3766 -2.2347
v  -39.7869 -17.7002 -9.4719
v  -36.8575 -18.9962 -10.7679
v  -43.4239 -21.3373 2.8130
v  -32.5497 -20.3766 -12.1482
v  -43.7649 -21.6783 8.2284
v  -27.5020 -21.3373 -13.1090
v  -43.4239 -21.3373 13.6437
v  -22.0866 -21.6783 -13.4499
v  -16.2748 -27.6895 -3.5789
v  -42.4632 -20.3766 18.6914
v  -16.6712 -21.3373 -13.1090
v  -32.8409 -23.6906 24.4454
v  -41.0828 -18.9962 22.9993
v  -11.6236 -20.3766 -12.1482
v  -11.3323 -23.6906 -7.9887
v  -10.2794 -27.6895 2.4165
v  -15.8881 -30.0244 8.2284
v  -10.0576 -28.1993 8.2284
v  -4.8579 -25.3587 8.2284
v  -0.4083 -21.6783 8.2284
v  -0.7493 -21.3373 2.8130
v  -1.7100 -20.3766 -2.2347
v  -3.0904 -18.9962 -6.5426
v  -7.3157 -18.9962 -10.7679
v  -4.3864 -17.7002 -9.4719
v  -22.0866 -30.0244 14.4268
v  -16.0137 -29.4301 14.3012
v  -10.7748 -26.1530 19.5401
v  -22.0866 -25.3587 25.4570
v  -16.6712 -21.3373 29.5657
v  -22.0866 -21.6783 29.9066
v  -27.5020 -21.3373 29.5657
v  -32.5497 -20.3766 28.6049
v  -36.8575 -18.9962 27.2246
v  -39.7869 -17.7002 25.9286
v  -11.6236 -20.3766 28.6049
v  -7.3157 -18.9962 27.2246
v  -4.3864 -17.7002 25.9286
v  -3.0904 -18.9962 22.9993
v  -1.7100 -20.3766 18.6914
v  -0.7493 -21.3373 13.6437
v  -28.1801 29.4689 2.1348
v  -22.0866 30.7481 8.2283
v  -22.0866 30.0628 2.0089
v  -33.4367 26.1839 -3.1218
v  -28.3061 30.0628 8.2283
v  -36.9014 19.0078 -10.8324
v  -32.5848 20.3902 -12.2175
v  -39.8489 17.7048 -9.5339
v  -41.1474 19.0078 -6.5864
v  -22.0866 28.2330 -3.8418
v  -27.5201 21.3531 -13.1801
v  -42.5324 20.3902 -2.2698
v  -16.5201 24.9723 -8.7738
v  -22.0866 21.6951 -13.5223
v  -43.4951 21.3531 2.7949
v  -16.6532 21.3531 -13.1801
v  -43.8373 21.6951 8.2283
v  -39.0887 24.9723 13.7949
v  -11.2967 23.7152 -8.0462
v  -11.5884 20.3902 -12.2175
v  -43.4951 21.3531 13.6618
v  -42.5324 20.3903 18.7265
v  -41.1474 19.0078 23.0431
v  -36.9014 19.0078 27.2891
v  -39.8489 17.7048 25.9906
v  -32.5848 20.3903 28.6741
v  -27.5201 21.3531 29.6368
v  -22.0866 25.3894 25.5180
v  -22.0866 21.6951 29.9790
v  -16.6532 21.3531 29.6368
v  -11.5884 20.3903 28.6741
v  -33.9329 27.7231 14.0595
v  -22.0866 30.0628 14.4478
v  -7.2718 19.0078 27.2891
v  -10.7365 26.1839 19.5785
v  -4.3244 17.7048 25.9906
v  -3.0258 19.0078 23.0431
v  -15.9931 29.4689 14.3218
v  -1.6408 20.3903 18.7265
v  -0.6781 21.3531 13.6618
v  -15.8672 30.0628 8.2283
v  -10.0164 28.2330 8.2283
v  -4.7970 25.3894 8.2283
v  -0.3360 21.6951 8.2283
v  -3.0258 19.0078 -6.5864
v  -4.3244 17.7048 -9.5339
v  -7.2718 19.0078 -10.8324
v  -1.6408 20.3902 -2.2698
v  -0.6781 21.3531 2.7949
v  -41.0828 -14.7709 27.2246
v  -45.7772 -10.7544 24.4454
v  -42.4632 -10.4630 28.6049
v  -47.0283 -16.9419 13.7761
v  -43.4239 -5.4154 29.5657
v  -43.8287 0.0000 29.9704
v  -43.4951 5.3813 29.6368
v  -47.1136 5.5148 25.2305
v  -42.5324 10.4477 28.6741
v  -48.2396 -11.3118 -3.0834
v  -41.1474 14.7697 27.2891
v  -48.3149 11.2995 19.5785
v  -41.0828 -14.7709 -10.7679
v  -42.4632 -10.4630 -12.1482
v  -43.4239 -5.4154 -13.1090
v  -45.8554 10.7404 -8.0462
v  -43.8373 -0.0543 -13.5223
v  -43.4951 5.3813 -13.1801
v  -47.1136 16.9454 13.7949
v  -47.1136 16.9454 2.6618
v  -42.5324 10.4477 -12.2175
v  -41.1474 14.7697 -10.8324
v  -3.0904 -14.7709 27.2246
v  -11.3323 -16.2170 31.9189
v  -1.7100 -10.4630 28.6049
v  -0.7493 -5.4154 29.5657
v  -22.0866 -17.2287 33.5871
v  -0.3445 0.0000 29.9704
v  -0.6781 5.3813 29.6368
v  -5.0845 5.5148 33.2553
v  -1.6408 10.4477 28.6741
v  -33.3984 -11.3118 34.3813
v  -3.0258 14.7697 27.2891
v  -10.7365 11.2995 34.4567
v  -39.0285 -5.5477 33.1700
v  -39.0887 5.5148 33.2553
v  -16.5200 16.9454 33.2553
v  -27.6532 16.9454 33.2553
v  3.2721 -17.2287 8.2284
v  4.0663 -11.3118 19.5401
v  6.1127 -12.0290 8.2284
v  7.9378 -6.1985 8.2284
v  8.0705 0.0000 14.2270
v  8.6614 0.0000 8.2283
v  2.8550 -5.5477 25.1702
v  8.0255 6.1679 8.2283
v  6.1920 12.0200 8.2283
v  5.6821 11.7975 14.0595
v  2.9403 5.5148 25.2305
v  3.3572 17.2326 8.2283
v  1.6822 16.2194 19.0182
v  -3.0904 -14.7709 -10.7679
v  1.6039 -10.7543 -7.9887
v  -1.7100 -10.4630 -12.1482
v  -0.7493 -5.4154 -13.1090
v  5.6028 -5.8118 -3.5789
v  -0.3360 -0.0543 -13.5223
v  -0.6781 5.3813 -13.1801
v  -1.6408 10.4477 -12.2175
v  5.6821 5.7796 -3.6180
v  -3.0258 14.7697 -10.8324
v  1.6822 16.2194 -2.5615
v  -38.3037 -10.7544 -15.4622
v  -27.6343 -16.9419 -16.7133
v  -34.1568 -0.0543 -20.0502
v  -10.7748 -11.3118 -17.9246
v  -33.4367 11.2995 -18.0000
v  -5.8121 10.7405 -15.5404
v  -27.6532 16.9454 -16.7986
v  -16.5201 16.9454 -16.7986
v  -16.3096 -0.0582 -50.4924
v  5.1077 -0.0582 -46.8703
v  -22.0866 6.1679 -21.8837
v  -10.0164 -0.0543 -20.0502
v  -22.0866 -6.1985 -21.7960
v  -4.5659 -0.0543 -16.6475
v  5.2427 6.4730 17.0185
v  11.7716 0.0000 18.3392
v  -16.1746 6.4730 13.3964
v  -9.6457 0.0000 14.7171
v  -19.8531 6.4730 -8.0773
v  -18.5279 -0.0582 -27.5391
v  -20.3984 -6.6415 -14.6063
v  -41.2704 6.4730 -11.6994
v  -39.9452 -0.0582 -31.1611
v  -41.8158 -6.6415 -18.2283
v  -4.4400 6.0413 42.9800
v  1.6535 0.0000 44.2126
v  24.7044 -0.0582 -44.9058
v  3.2871 -0.0582 -48.5279
v  -27.8619 6.0413 19.5581
v  -26.6251 -0.0543 1.3944
v  -28.3708 -6.1985 13.4646
v  -51.6020 6.0413 14.3218
v  -50.3652 -0.0543 -3.8418
v  -52.1110 -6.1985 8.2283
v  13.7237 -0.0543 -14.8140
v  11.7716 -6.6415 17.5638
v  -9.6457 -6.6415 13.9418
v  -22.0866 0.0000 38.9764
v  -16.2748 -11.8072 35.9178
v  -9.6457 6.6087 -50.4924
v  11.7717 6.6087 -46.8703
v  1.6536 6.1679 -16.6475
# 720 vertices

vn -0.3828 -0.1887 0.9043
vn -0.1982 -0.1982 0.9599
vn -0.2033 0.0000 0.9791
vn -0.3670 -0.3670 0.8547
vn -0.3890 0.0000 0.9212
vn 0.0000 0.0000 1.0000
vn -0.1982 0.1982 0.9599
vn -0.1887 -0.3828 0.9043
vn 0.0000 -0.2033 0.9791
vn -0.6201 -0.4805 0.6201
vn -0.3492 -0.5273 0.7746
vn -0.6647 -0.3411 0.6647
vn -0.5774 -0.5774 0.5774
vn -0.4805 -0.6201 0.6201
vn -0.5509 -0.1805 0.8148
vn -0.6960 -0.1769 0.6960
vn -0.3411 -0.6647 0.6647
vn -0.5596 0.0000 0.8288
vn -0.7071 0.0000 0.7071
vn -0.1769 -0.6960 0.6960
vn -0.1805 -0.5509 0.8148
vn -0.5509 0.1805 0.8148
vn -0.6960 0.1769 0.6960
vn 0.0000 -0.7071 0.7071
vn 0.0000 -0.5596 0.8288
vn -0.5273 0.3492 0.7746
vn -0.6647 0.3411 0.6647
vn 0.1769 -0.6960 0.6960
vn 0.1805 -0.5509 0.8148
vn -0.3492 0.5273 0.7746
vn -0.6201 0.4805 0.6201
vn 0.3411 -0.6647 0.6647
vn 0.3492 -0.5273 0.7746
vn 0.1982 -0.1982 0.9599
vn 0.2033 0.0000 0.9791
vn 0.3890 0.0000 0.9212
vn 0.3828 -0.1887 0.9043
vn 0.5596 0.0000 0.8288
vn 0.5509 -0.1805 0.8148
vn 0.7071 0.0000 0.7071
vn 0.6960 -0.1769 0.6960
vn 0.5273 -0.3492 0.7746
vn 0.6647 -0.3411 0.6647
vn 0.6201 -0.4805 0.6201
vn 0.4805 -0.6201 0.6201
vn 0.5774 -0.5774 0.5774
vn 0.0000 0.2033 0.9791
vn 0.1982 0.1982 0.9599
vn 0.1887 0.3828 0.9043
vn 0.0000 0.3890 0.9212
vn 0.1769 0.6960 0.6960
vn 0.0000 0.7071 0.7071
vn 0.0000 0.5596 0.8288
vn -0.1769 0.6960 0.6960
vn -0.1805 0.5509 0.8148
vn -0.3411 0.6647 0.6647
vn -0.4805 0.6201 0.6201
vn -0.5774 0.5774 0.5774
vn 0.3411 0.6647 0.6647
vn 0.1805 0.5509 0.8148
vn 0.4805 0.6201 0.6201
vn 0.4964 0.4964 0.7122
vn 0.5774 0.5774 0.5774
vn 0.6201 0.4805 0.6201
vn 0.6647 0.3411 0.6647
vn 0.5509 0.1805 0.8148
vn 0.6960 0.1769 0.6960
vn 0.3828 0.1887 0.9043
vn -0.1972 -0.1972 -0.9603
vn 0.0000 0.0000 -1.0000
vn 0.0000 -0.2014 -0.9795
vn -0.1885 -0.3823 -0.9046
vn -0.3823 -0.1885 -0.9046
vn -0.2014 0.0000 -0.9795
vn -0.4804 -0.6199 -0.6205
vn -0.5271 -0.3496 -0.7746
vn -0.3414 -0.6646 -0.6647
vn -0.5771 -0.5771 -0.5779
vn -0.6199 -0.4804 -0.6205
vn -0.1805 -0.5507 -0.8150
vn -0.1769 -0.6961 -0.6959
vn -0.6646 -0.3414 -0.6647
vn 0.0000 -0.5594 -0.8289
vn 0.0000 -0.7072 -0.7070
vn -0.6961 -0.1769 -0.6959
vn -0.5507 -0.1805 -0.8150
vn 0.1805 -0.5507 -0.8150
vn 0.1769 -0.6961 -0.6959
vn -0.7072 0.0000 -0.7070
vn -0.5594 0.0000 -0.8289
vn 0.3496 -0.5271 -0.7746
vn 0.3414 -0.6646 -0.6647
vn -0.6961 0.1769 -0.6959
vn -0.5507 0.1805 -0.8150
vn -0.6646 0.3414 -0.6647
vn -0.5271 0.3496 -0.7746
vn -0.6199 0.4804 -0.6205
vn -0.3496 0.5271 -0.7746
vn -0.4804 0.6199 -0.6205
vn -0.5771 0.5771 -0.5779
vn -0.3414 0.6646 -0.6647
vn -0.1769 0.6961 -0.6959
vn -0.1805 0.5507 -0.8150
vn 0.0000 0.7072 -0.7070
vn 0.1769 0.6961 -0.6959
vn 0.0000 0.5594 -0.8289
vn 0.3414 0.6646 -0.6647
vn 0.1805 0.5507 -0.8150
vn -0.1972 0.1972 -0.9603
vn 0.0000 0.2014 -0.9795
vn 0.4804 0.6199 -0.6205
vn 0.4962 0.4962 -0.7124
vn 0.5771 0.5771 -0.5779
vn 0.6199 0.4804 -0.6205
vn 0.1885 0.3823 -0.9046
vn 0.1972 0.1972 -0.9603
vn 0.6646 0.3414 -0.6647
vn 0.6961 0.1769 -0.6959
vn 0.5507 0.1805 -0.8150
vn 0.3823 0.1885 -0.9046
vn 0.2014 0.0000 -0.9795
vn 0.3883 0.0000 -0.9215
vn 0.5594 0.0000 -0.8289
vn 0.7072 0.0000 -0.7070
vn 0.6199 -0.4804 -0.6205
vn 0.5771 -0.5771 -0.5779
vn 0.4804 -0.6199 -0.6205
vn 0.6646 -0.3414 -0.6647
vn 0.6961 -0.1769 -0.6959
vn 0.5271 -0.3496 -0.7746
vn 0.5507 -0.1805 -0.8150
vn 0.3823 -0.1885 -0.9046
vn 0.1972 -0.1972 -0.9603
vn -0.6201 0.6201 0.4805
vn -0.7746 0.5273 0.3492
vn -0.6647 0.6647 0.3411
vn -0.7746 0.3492 0.5273
vn -0.6950 0.6950 0.1840
vn -0.8148 0.1805 0.5509
vn -0.7071 0.7071 0.0090
vn -0.8288 0.0000 0.5596
vn -0.6962 0.6962 -0.1751
vn -0.8306 0.5568 0.0086
vn -0.8148 -0.1805 0.5509
vn -0.6646 0.6646 -0.3414
vn -0.8163 0.5490 -0.1794
vn -0.7122 -0.4964 0.4964
vn -0.6200 0.6200 -0.4809
vn -0.7125 0.4959 -0.4964
vn -0.6201 -0.6201 0.4805
vn -0.6647 -0.6647 0.3411
vn -0.6947 -0.6947 0.1867
vn -0.8290 -0.5591 0.0095
vn -0.7071 -0.7071 0.0100
vn -0.8154 -0.5501 -0.1805
vn -0.6960 -0.6960 -0.1768
vn -0.7749 0.3492 -0.5269
vn -0.8153 0.1805 -0.5502
vn -0.8292 0.0000 -0.5590
vn -0.8153 -0.1805 -0.5502
vn -0.7749 -0.3492 -0.5269
vn -0.7750 -0.5266 -0.3494
vn -0.6646 -0.6646 -0.3414
vn -0.6200 -0.6200 -0.4809
vn 0.6201 0.6201 0.4805
vn 0.5273 0.7746 0.3492
vn 0.6647 0.6647 0.3411
vn 0.3492 0.7746 0.5273
vn 0.6950 0.6950 0.1840
vn 0.1805 0.8148 0.5509
vn 0.7071 0.7071 0.0090
vn 0.0000 0.8288 0.5596
vn 0.6962 0.6962 -0.1751
vn 0.5568 0.8306 0.0086
vn -0.1805 0.8148 0.5509
vn 0.6646 0.6646 -0.3414
vn 0.5490 0.8163 -0.1794
vn -0.4964 0.7122 0.4964
vn 0.6200 0.6200 -0.4809
vn 0.4959 0.7125 -0.4964
vn -0.5488 0.8146 0.1878
vn -0.5568 0.8306 0.0086
vn -0.5490 0.8163 -0.1794
vn 0.3492 0.7749 -0.5269
vn 0.1805 0.8153 -0.5502
vn 0.0000 0.8292 -0.5590
vn -0.1805 0.8153 -0.5502
vn -0.3492 0.7749 -0.5269
vn -0.5266 0.7750 -0.3494
vn 0.8288 0.0000 0.5596
vn 0.8148 0.1805 0.5509
vn 0.9212 0.0000 0.3890
vn 0.7122 0.4964 0.4964
vn 0.9043 0.1887 0.3828
vn 0.9783 -0.0003 0.2073
vn 0.9593 0.1947 0.2044
vn 1.0000 -0.0009 0.0070
vn 0.8146 0.5488 0.1878
vn 0.9797 -0.0006 -0.2005
vn 0.9804 0.1967 0.0069
vn 0.9216 0.0000 -0.3881
vn 0.9607 0.1949 -0.1976
vn 0.8306 0.5568 0.0086
vn 0.8292 0.0000 -0.5590
vn 0.9047 0.1886 -0.3820
vn 0.8163 0.5490 -0.1794
vn 0.8153 0.1805 -0.5502
vn 0.7750 0.5266 -0.3494
vn 0.7749 0.3492 -0.5269
vn 0.6201 -0.6201 0.4805
vn 0.7746 -0.5273 0.3492
vn 0.6647 -0.6647 0.3411
vn 0.7746 -0.3492 0.5273
vn 0.6947 -0.6947 0.1867
vn 0.8148 -0.1805 0.5509
vn 0.8134 -0.5498 0.1898
vn 0.7071 -0.7071 0.0100
vn 0.9043 -0.1887 0.3828
vn 0.6960 -0.6960 -0.1768
vn 0.8290 -0.5591 0.0095
vn 0.9591 -0.1962 0.2040
vn 0.6646 -0.6646 -0.3414
vn 0.8154 -0.5501 -0.1805
vn 0.9798 -0.1998 0.0076
vn 0.6200 -0.6200 -0.4809
vn 0.7749 -0.3492 -0.5269
vn 0.9606 -0.1966 -0.1965
vn 0.9047 -0.1886 -0.3820
vn 0.8153 -0.1805 -0.5502
vn -0.5273 -0.7746 0.3492
vn -0.3492 -0.7746 0.5273
vn -0.1805 -0.8148 0.5509
vn -0.5498 -0.8134 0.1898
vn 0.0000 -0.8288 0.5596
vn -0.5591 -0.8290 0.0095
vn 0.1805 -0.8148 0.5509
vn -0.5501 -0.8154 -0.1805
vn 0.4964 -0.7122 0.4964
vn -0.4959 -0.7125 -0.4964
vn 0.5273 -0.7746 0.3492
vn 0.5591 -0.8290 0.0095
vn 0.5501 -0.8154 -0.1805
vn -0.3492 -0.7749 -0.5269
vn -0.1805 -0.8153 -0.5502
vn 0.0000 -0.8292 -0.5590
vn 0.1805 -0.8153 -0.5502
vn 0.3492 -0.7749 -0.5269
vn 0.5266 -0.7750 -0.3494
vn -0.7746 -0.5273 0.3492
vn 0.5488 0.8146 0.1878
vn -0.1887 0.3828 0.9043
vn -0.3828 0.1887 0.9043
vn 0.0000 -0.3883 -0.9215
vn -0.3883 0.0000 -0.9215
vn 0.0000 0.3883 -0.9215
vn 0.0000 -0.3890 0.9212
vn -0.3818 -0.9048 -0.1886
vn -0.1998 -0.9798 0.0076
vn -0.3883 -0.9215 0.0086
vn 0.0000 -0.9798 -0.1999
vn 0.1966 -0.9606 -0.1965
vn 0.1998 -0.9798 0.0076
vn -0.1949 0.9607 -0.1976
vn -0.3847 0.9230 0.0076
vn -0.1967 0.9804 0.0069
vn -0.9797 -0.0006 -0.2005
vn -0.9606 -0.1966 -0.1965
vn -0.9798 -0.1998 0.0076
vn 0.0000 -0.9216 -0.3881
vn 0.1886 -0.9047 -0.3820
vn -0.9593 0.1947 0.2044
vn -0.9038 0.3803 0.1963
vn -0.9230 0.3847 0.0076
vn -0.1887 0.9043 0.3828
vn 0.0000 0.9782 0.2076
vn -0.1947 0.9593 0.2044
vn 0.0000 -0.9212 0.3890
vn -0.1887 -0.9043 0.3828
vn -0.1962 -0.9591 0.2040
vn 0.0000 0.9216 -0.3881
vn 0.0000 0.9796 -0.2010
vn 0.1962 -0.9591 0.2040
vn 0.0000 -0.9783 0.2070
vn 0.0000 -1.0000 0.0073
vn 0.9230 0.3847 0.0076
vn -0.9216 0.0000 -0.3881
vn 0.9048 -0.3818 -0.1886
vn -0.3670 0.8547 0.3670
vn -0.3803 0.9038 0.1963
vn -0.9215 -0.3883 0.0086
vn -0.9047 -0.1886 -0.3820
vn 0.1887 -0.9043 0.3828
vn 0.3883 -0.9215 0.0086
vn 0.3663 0.8553 -0.3665
vn 0.1949 0.9607 -0.1976
vn 0.3799 0.9055 -0.1889
vn 0.1947 0.9593 0.2044
vn 0.3847 0.9230 0.0076
vn 0.1967 0.9804 0.0069
vn -0.9804 0.1967 0.0069
vn -0.3821 -0.9029 0.1970
vn -0.9043 0.1887 0.3828
vn 0.3803 0.9038 0.1963
vn -0.9043 -0.1887 0.3828
vn -0.9212 0.0000 0.3890
vn -0.9783 -0.0003 0.2073
vn -0.8547 -0.3670 0.3670
vn -0.9591 -0.1962 0.2040
vn -0.9029 -0.3821 0.1970
vn -0.1886 0.9047 -0.3820
vn 0.9029 -0.3821 0.1970
vn 0.8553 -0.3663 -0.3665
vn -0.3669 0.3669 -0.8549
vn 0.3670 -0.8547 0.3670
vn 0.3821 -0.9029 0.1970
vn 0.9055 0.3799 -0.1889
vn 0.1886 0.9047 -0.3820
vn -0.1886 -0.9047 -0.3820
vn -0.3663 -0.8553 -0.3665
vn -0.1966 -0.9606 -0.1965
vn -0.8553 0.3663 -0.3665
vn -0.9607 0.1949 -0.1976
vn -0.9055 0.3799 -0.1889
vn -0.9047 0.1886 -0.3820
vn 0.3663 -0.8553 -0.3665
vn 0.3818 -0.9048 -0.1886
vn -0.8553 -0.3663 -0.3665
vn -0.9048 -0.3818 -0.1886
vn 0.3669 -0.3669 -0.8549
vn -0.3670 -0.8547 0.3670
vn 0.8553 0.3663 -0.3665
vn 0.0000 0.9212 0.3890
vn 0.3670 0.8547 0.3670
vn 0.8547 0.3670 0.3670
vn 0.9038 0.3803 0.1963
vn -0.3799 0.9055 -0.1889
vn -0.3663 0.8553 -0.3665
vn 0.8547 -0.3670 0.3670
vn 0.9215 -0.3883 0.0086
vn 0.3670 -0.3670 0.8547
vn -0.8547 0.3670 0.3670
vn 0.1887 0.9043 0.3828
# 342 vertex normals

o Sphere__17_
g Sphere__17_
s off
f 1//1 2//2 3//3 
f 4//4 2//2 1//1 
f 1//1 3//3 5//5 
f 2//2 6//6 3//3 
f 7//7 5//5 3//3 
f 4//8 8//9 2//2 
f 2//2 8//9 6//6 
f 9//10 4//11 10//12 
f 11//13 4//11 9//10 
f 11//13 12//14 4//11 
f 10//12 5//15 13//16 
f 12//14 14//17 4//11 
f 13//16 5//18 15//19 
f 14//17 16//20 4//21 
f 5//22 17//23 15//19 
f 16//20 18//24 19//25 
f 5//26 20//27 17//23 
f 18//24 21//28 19//29 
f 22//30 23//31 20//27 
f 21//28 24//32 19//33 
f 8//9 25//34 26//35 
f 8//9 26//35 6//6 
f 25//34 27//36 26//35 
f 25//37 28//38 27//36 
f 29//39 30//40 28//38 
f 29//39 31//41 30//40 
f 29//42 32//43 31//41 
f 29//42 33//44 32//43 
f 24//32 34//45 29//42 
f 34//45 33//44 29//42 
f 34//45 35//46 33//44 
f 36//47 3//3 6//6 
f 37//48 36//47 6//6 
f 38//49 36//47 37//48 
f 39//50 7//7 36//47 
f 36//47 7//7 3//3 
f 40//51 41//52 39//53 
f 41//52 42//54 39//55 
f 42//54 43//56 22//30 
f 43//56 44//57 22//30 
f 44//57 23//31 22//30 
f 44//57 45//58 23//31 
f 46//59 40//51 39//60 
f 47//61 46//59 38//62 
f 48//63 47//61 38//62 
f 48//63 38//62 49//64 
f 49//64 38//62 50//65 
f 50//65 38//66 51//67 
f 38//68 37//48 26//35 
f 37//48 6//6 26//35 
f 38//68 26//35 27//36 
f 38//66 27//36 28//38 
f 51//67 38//66 28//38 
f 51//67 28//38 30//40 
f 52//69 53//70 54//71 
f 55//72 52//69 54//71 
f 55//73 56//74 52//69 
f 52//69 56//74 53//70 
f 57//75 55//76 58//77 
f 59//78 55//76 57//75 
f 59//78 60//79 55//76 
f 58//77 61//80 62//81 
f 60//79 63//82 55//76 
f 62//81 64//83 65//84 
f 63//82 66//85 55//86 
f 64//87 67//88 65//84 
f 66//85 68//89 69//90 
f 70//91 71//92 67//88 
f 68//89 72//93 69//94 
f 72//93 73//95 69//96 
f 73//95 74//97 69//98 
f 74//97 75//99 69//98 
f 74//97 76//100 75//99 
f 69//98 75//99 77//101 
f 69//98 77//101 78//102 
f 79//103 78//102 80//104 
f 81//105 79//106 80//104 
f 82//107 79//108 81//105 
f 56//74 83//109 84//110 
f 56//74 84//110 53//70 
f 85//111 86//112 82//107 
f 87//113 86//112 85//111 
f 87//113 88//114 86//112 
f 86//115 89//116 84//110 
f 89//116 53//70 84//110 
f 88//114 90//117 86//112 
f 90//117 91//118 86//119 
f 86//120 92//121 89//116 
f 89//116 92//121 53//70 
f 86//120 93//122 92//121 
f 86//119 94//123 93//122 
f 91//118 94//123 86//119 
f 91//118 95//124 94//123 
f 96//125 97//126 98//127 
f 96//125 98//127 70//91 
f 70//91 98//127 71//92 
f 99//128 96//125 70//91 
f 100//129 99//128 70//130 
f 95//124 100//129 70//131 
f 95//124 70//131 94//123 
f 94//123 61//132 93//122 
f 93//122 61//133 92//121 
f 92//121 61//133 54//71 
f 92//121 54//71 53//70 
f 23//31 45//58 101//134 
f 23//31 101//134 102//135 
f 20//27 23//31 102//135 
f 102//135 101//134 103//136 
f 17//23 20//27 104//137 
f 102//135 103//136 105//138 
f 15//19 17//23 104//139 
f 102//135 105//138 106//140 
f 13//16 15//19 107//141 
f 108//142 109//143 106//140 
f 10//12 13//16 107//144 
f 110//145 109//146 108//142 
f 9//10 10//12 111//147 
f 112//148 113//149 110//145 
f 11//13 9//10 111//147 
f 11//13 111//147 114//150 
f 114//150 111//147 115//151 
f 115//151 111//147 116//152 
f 116//152 117//153 118//154 
f 117//155 119//156 118//154 
f 76//100 113//149 112//148 
f 76//100 74//97 113//149 
f 74//97 73//95 120//157 
f 73//95 72//93 120//158 
f 72//93 68//89 120//159 
f 68//89 66//85 121//160 
f 66//85 63//82 121//161 
f 117//162 122//163 119//156 
f 63//82 60//79 117//162 
f 117//162 123//164 122//163 
f 60//79 123//164 117//162 
f 60//79 59//78 123//164 
f 47//61 48//63 124//165 
f 47//61 124//165 125//166 
f 46//59 47//61 125//166 
f 125//166 124//165 126//167 
f 40//51 46//59 127//168 
f 125//166 126//167 128//169 
f 41//52 40//51 127//170 
f 125//166 128//169 129//171 
f 42//54 41//52 130//172 
f 131//173 132//174 129//171 
f 43//56 42//54 130//175 
f 133//176 132//177 131//173 
f 44//57 43//56 134//178 
f 135//179 136//180 133//176 
f 45//58 44//57 134//178 
f 45//58 134//178 101//134 
f 101//134 137//181 103//136 
f 103//136 137//181 105//138 
f 105//138 138//182 106//140 
f 138//183 108//142 106//140 
f 87//113 136//180 135//179 
f 87//113 85//111 136//180 
f 85//111 82//107 139//184 
f 82//107 81//105 139//185 
f 81//105 80//104 139//186 
f 80//104 78//102 140//187 
f 78//102 77//101 140//188 
f 138//189 110//145 108//142 
f 77//101 75//99 138//189 
f 138//189 112//148 110//145 
f 75//99 112//148 138//189 
f 75//99 76//100 112//148 
f 51//67 30//40 141//190 
f 51//67 141//190 142//191 
f 50//65 51//67 142//191 
f 142//191 141//190 143//192 
f 49//64 50//65 142//193 
f 142//194 143//192 144//195 
f 48//63 49//64 142//193 
f 48//63 142//193 124//165 
f 145//196 144//195 146//197 
f 124//165 147//198 126//167 
f 148//199 145//200 146//197 
f 126//167 147//198 128//169 
f 149//201 150//202 148//199 
f 128//169 151//203 129//171 
f 152//204 150//205 149//201 
f 151//206 131//173 129//171 
f 95//124 153//207 152//204 
f 95//124 91//118 153//207 
f 151//208 133//176 131//173 
f 91//118 90//117 153//209 
f 153//209 135//179 133//176 
f 90//117 88//114 153//209 
f 88//114 135//179 153//209 
f 88//114 87//113 135//179 
f 33//44 35//46 154//210 
f 33//44 154//210 155//211 
f 32//43 33//44 155//211 
f 155//211 154//210 156//212 
f 31//41 32//43 155//213 
f 155//211 156//212 157//214 
f 30//40 31//41 155//215 
f 30//40 155//215 141//190 
f 158//216 157//214 159//217 
f 141//190 160//218 143//192 
f 161//219 158//220 159//217 
f 143//192 160//221 144//195 
f 162//222 158//223 161//219 
f 144//195 163//224 146//197 
f 164//225 165//226 162//222 
f 163//227 148//199 146//197 
f 97//126 165//226 164//225 
f 97//126 96//125 165//226 
f 165//228 149//201 148//199 
f 96//125 99//128 165//226 
f 165//229 152//204 149//201 
f 99//128 100//129 165//229 
f 100//129 152//204 165//229 
f 100//129 95//124 152//204 
f 12//14 11//13 114//150 
f 12//14 114//150 166//230 
f 14//17 12//14 166//230 
f 166//230 114//150 115//151 
f 16//20 14//17 167//231 
f 166//230 115//151 116//152 
f 18//24 16//20 167//232 
f 168//233 116//152 118//154 
f 21//28 18//24 169//234 
f 119//156 168//235 118//154 
f 24//32 21//28 169//236 
f 122//163 168//237 119//156 
f 34//45 24//32 170//238 
f 123//164 171//239 122//163 
f 35//46 34//45 170//238 
f 35//46 170//238 154//210 
f 154//210 170//240 156//212 
f 156//212 170//240 157//214 
f 157//214 172//241 159//217 
f 172//242 161//219 159//217 
f 59//78 171//239 123//164 
f 59//78 57//75 171//239 
f 57//75 58//77 173//243 
f 58//77 62//81 173//244 
f 62//81 65//84 173//245 
f 65//84 67//88 174//246 
f 67//88 71//92 174//247 
f 172//248 162//222 161//219 
f 71//92 98//127 172//248 
f 172//248 164//225 162//222 
f 98//127 164//225 172//248 
f 98//127 97//126 164//225 
f 175//1 176//2 177//3 
f 178//4 176//2 175//1 
f 175//1 177//3 179//5 
f 176//2 180//6 177//3 
f 181//7 179//5 177//3 
f 178//8 182//9 176//2 
f 176//2 182//9 180//6 
f 183//10 178//11 184//12 
f 185//13 178//11 183//10 
f 185//13 186//14 178//11 
f 184//12 179//15 187//16 
f 186//14 188//17 178//11 
f 187//16 179//18 189//19 
f 188//17 190//20 178//21 
f 179//22 191//23 189//19 
f 190//20 192//24 193//25 
f 179//26 194//27 191//23 
f 192//24 195//28 193//29 
f 196//30 197//31 194//27 
f 195//28 198//32 193//33 
f 182//9 193//34 199//35 
f 182//9 199//35 180//6 
f 193//34 200//36 199//35 
f 193//37 201//38 200//36 
f 202//39 203//40 201//38 
f 202//39 204//41 203//40 
f 202//42 205//43 204//41 
f 202//42 206//44 205//43 
f 198//32 207//45 202//42 
f 207//45 206//44 202//42 
f 207//45 208//46 206//44 
f 209//47 177//3 180//6 
f 210//48 209//47 180//6 
f 211//49 209//47 210//48 
f 212//50 181//7 209//47 
f 209//47 181//7 177//3 
f 213//51 214//52 212//53 
f 214//52 215//54 212//55 
f 215//54 216//56 196//30 
f 216//56 217//57 196//30 
f 217//57 197//31 196//30 
f 217//57 218//58 197//31 
f 219//59 213//51 212//60 
f 220//61 219//59 211//62 
f 221//63 220//61 211//62 
f 221//63 211//62 222//64 
f 222//64 211//62 223//65 
f 223//65 211//66 224//67 
f 211//68 210//48 199//35 
f 210//48 180//6 199//35 
f 211//68 199//35 200//36 
f 211//66 200//36 201//38 
f 224//67 211//66 201//38 
f 224//67 201//38 203//40 
f 225//69 226//70 227//71 
f 228//72 225//69 227//71 
f 228//73 229//74 225//69 
f 225//69 229//74 226//70 
f 230//75 228//76 231//77 
f 232//78 228//76 230//75 
f 232//78 233//79 228//76 
f 231//77 234//80 235//81 
f 233//79 236//82 228//76 
f 235//81 237//83 238//84 
f 236//82 239//85 228//86 
f 237//87 240//88 238//84 
f 239//85 241//89 242//90 
f 243//91 244//92 240//88 
f 241//89 245//93 242//94 
f 245//93 246//95 242//96 
f 246//95 247//97 242//98 
f 247//97 248//99 242//98 
f 247//97 249//100 248//99 
f 242//98 248//99 250//101 
f 242//98 250//101 251//102 
f 252//103 251//102 253//104 
f 254//105 252//106 253//104 
f 255//107 252//108 254//105 
f 229//74 256//109 257//110 
f 229//74 257//110 226//70 
f 258//111 259//112 255//107 
f 260//113 259//112 258//111 
f 260//113 261//114 259//112 
f 259//115 262//116 257//110 
f 262//116 226//70 257//110 
f 261//114 263//117 259//112 
f 263//117 264//118 259//119 
f 259//120 265//121 262//116 
f 262//116 265//121 226//70 
f 259//120 266//122 265//121 
f 259//119 267//123 266//122 
f 264//118 267//123 259//119 
f 264//118 268//124 267//123 
f 269//125 270//126 271//127 
f 269//125 271//127 243//91 
f 243//91 271//127 244//92 
f 272//128 269//125 243//91 
f 273//129 272//128 243//130 
f 268//124 273//129 243//131 
f 268//124 243//131 267//123 
f 267//123 234//132 266//122 
f 266//122 234//133 265//121 
f 265//121 234//133 227//71 
f 265//121 227//71 226//70 
f 197//31 218//58 274//134 
f 197//31 274//134 275//135 
f 194//27 197//31 275//135 
f 275//135 274//134 276//136 
f 191//23 194//27 277//137 
f 275//135 276//136 278//138 
f 189//19 191//23 277//139 
f 275//135 278//138 279//140 
f 187//16 189//19 277//141 
f 280//142 281//143 279//140 
f 184//12 187//16 277//144 
f 282//145 281//146 280//142 
f 183//10 184//12 283//147 
f 284//148 285//149 282//145 
f 185//13 183//10 283//147 
f 185//13 283//147 286//150 
f 286//150 283//249 287//151 
f 287//151 283//249 288//152 
f 288//152 289//153 290//154 
f 289//155 291//156 290//154 
f 249//100 285//149 284//148 
f 249//100 247//97 285//149 
f 247//97 246//95 292//157 
f 246//95 245//93 292//158 
f 245//93 241//89 292//159 
f 241//89 239//85 293//160 
f 239//85 236//82 293//161 
f 289//162 294//163 291//156 
f 236//82 233//79 289//162 
f 289//162 295//164 294//163 
f 233//79 295//164 289//162 
f 233//79 232//78 295//164 
f 220//61 221//63 296//165 
f 220//61 296//165 297//166 
f 219//59 220//61 297//166 
f 297//166 296//165 298//167 
f 213//51 219//59 299//168 
f 297//166 298//167 300//169 
f 214//52 213//51 299//170 
f 297//166 300//169 301//171 
f 215//54 214//52 302//172 
f 303//173 304//174 301//171 
f 216//56 215//54 302//175 
f 305//176 304//177 303//173 
f 217//57 216//56 302//178 
f 306//179 307//180 305//176 
f 218//58 217//57 302//178 
f 218//58 302//178 274//134 
f 274//134 308//181 276//136 
f 276//136 308//181 278//138 
f 278//138 309//182 279//140 
f 309//183 280//142 279//140 
f 260//113 307//180 306//179 
f 260//113 258//111 307//180 
f 258//111 255//107 310//184 
f 255//107 254//105 310//185 
f 254//105 253//104 310//186 
f 253//104 251//102 311//187 
f 251//102 250//101 311//188 
f 309//189 282//145 280//142 
f 250//101 248//99 309//189 
f 309//189 284//148 282//145 
f 248//99 284//148 309//189 
f 248//99 249//100 284//148 
f 224//67 203//40 312//190 
f 224//67 312//190 313//191 
f 223//65 224//67 313//191 
f 313//191 312//190 314//192 
f 222//64 223//65 313//193 
f 313//194 314//192 315//195 
f 221//63 222//64 313//193 
f 221//63 313//193 296//165 
f 316//196 315//195 317//197 
f 296//165 318//198 298//167 
f 319//199 316//200 317//197 
f 298//167 318//198 300//169 
f 320//201 321//202 319//199 
f 300//169 322//203 301//171 
f 323//204 321//205 320//201 
f 322//206 303//173 301//171 
f 268//124 324//207 323//204 
f 268//124 264//118 324//207 
f 322//208 305//176 303//173 
f 264//118 263//117 324//209 
f 324//209 306//179 305//176 
f 263//117 261//114 324//209 
f 261//114 306//179 324//209 
f 261//114 260//113 306//179 
f 206//44 208//46 325//210 
f 206//44 325//210 326//211 
f 205//43 206//44 326//211 
f 326//211 325//210 327//212 
f 204//41 205//43 326//213 
f 326//211 327//212 328//214 
f 203//40 204//41 326//215 
f 203//40 326//215 312//190 
f 329//216 328//214 330//217 
f 312//190 326//218 314//192 
f 331//219 329//220 330//217 
f 314//192 332//221 315//195 
f 333//222 329//223 331//219 
f 315//195 332//224 317//197 
f 334//225 335//226 333//222 
f 332//227 319//199 317//197 
f 270//126 335//226 334//225 
f 270//126 269//125 335//226 
f 335//228 320//201 319//199 
f 269//125 272//128 335//226 
f 335//229 323//204 320//201 
f 272//128 273//129 335//229 
f 273//129 323//204 335//229 
f 273//129 268//124 323//204 
f 186//14 185//13 286//150 
f 186//14 286//150 336//230 
f 188//17 186//14 336//230 
f 336//230 286//150 287//151 
f 190//20 188//17 336//231 
f 336//230 287//151 288//152 
f 192//24 190//20 336//232 
f 337//233 288//152 290//154 
f 195//28 192//24 338//234 
f 291//156 337//235 290//154 
f 198//32 195//28 338//236 
f 294//163 337//237 291//156 
f 207//45 198//32 339//238 
f 295//164 340//239 294//163 
f 208//46 207//45 339//238 
f 208//46 339//238 325//210 
f 325//210 339//240 327//212 
f 327//212 339//240 328//214 
f 328//214 341//241 330//217 
f 341//242 331//219 330//217 
f 232//78 340//239 295//164 
f 232//78 230//75 340//239 
f 230//75 231//77 342//243 
f 231//77 235//81 342//244 
f 235//81 238//84 342//245 
f 238//84 240//88 343//246 
f 240//88 244//92 343//247 
f 341//248 333//222 331//219 
f 244//92 271//127 341//248 
f 341//248 334//225 333//222 
f 271//127 334//225 341//248 
f 271//127 270//126 334//225 
f 344//1 345//2 346//3 
f 347//4 345//2 344//1 
f 344//1 346//3 348//5 
f 345//2 349//6 346//3 
f 350//7 348//5 346//3 
f 347//8 351//9 345//2 
f 345//2 351//9 349//6 
f 352//10 347//11 353//12 
f 354//13 347//11 352//10 
f 354//13 355//14 347//11 
f 353//12 348//15 356//16 
f 355//14 357//17 347//11 
f 356//16 348//18 358//19 
f 357//17 359//20 347//21 
f 348//22 360//23 358//19 
f 359//20 361//24 362//25 
f 348//26 363//27 360//23 
f 361//24 364//28 362//29 
f 365//30 366//31 363//27 
f 364//28 367//32 362//33 
f 351//9 368//34 369//35 
f 351//9 369//35 349//6 
f 368//34 370//36 369//35 
f 368//37 371//38 370//36 
f 372//39 373//40 371//38 
f 372//39 374//41 373//40 
f 372//42 375//43 374//41 
f 372//42 376//44 375//43 
f 367//32 377//45 372//42 
f 377//45 376//44 372//42 
f 377//45 378//46 376//44 
f 379//47 346//3 349//6 
f 380//48 379//47 349//6 
f 381//49 379//47 380//48 
f 382//50 350//7 379//47 
f 379//47 350//7 346//3 
f 383//51 384//52 382//53 
f 384//52 385//54 382//55 
f 385//54 386//56 365//30 
f 386//56 387//57 365//30 
f 387//57 366//31 365//30 
f 387//57 388//58 366//31 
f 389//59 383//51 382//60 
f 390//61 389//59 381//62 
f 391//63 390//61 381//62 
f 391//63 381//62 392//64 
f 392//64 381//62 393//65 
f 393//65 381//66 394//67 
f 381//68 380//48 369//35 
f 380//48 349//6 369//35 
f 381//68 369//35 370//36 
f 381//66 370//36 371//38 
f 394//67 381//66 371//38 
f 394//67 371//38 373//40 
f 395//69 396//70 397//71 
f 398//72 395//69 397//71 
f 398//73 399//74 395//69 
f 395//69 399//74 396//70 
f 400//75 398//76 401//77 
f 402//78 398//76 400//75 
f 402//78 403//79 398//76 
f 401//77 404//80 405//81 
f 403//79 406//82 398//76 
f 405//81 407//83 408//84 
f 406//82 409//85 398//86 
f 407//87 410//88 408//84 
f 409//85 411//89 412//90 
f 413//91 414//92 410//88 
f 411//89 415//93 412//94 
f 415//93 416//95 412//96 
f 416//95 417//97 412//98 
f 417//97 418//99 412//98 
f 417//97 419//100 418//99 
f 412//98 418//99 420//101 
f 412//98 420//101 421//102 
f 422//103 421//102 423//104 
f 424//105 422//106 423//104 
f 425//107 422//108 424//105 
f 399//74 426//109 427//110 
f 399//74 427//110 396//70 
f 428//111 429//112 425//107 
f 430//113 429//112 428//111 
f 430//113 431//114 429//112 
f 429//115 432//116 427//110 
f 432//116 396//70 427//110 
f 431//114 433//117 429//112 
f 433//117 434//118 429//119 
f 429//120 435//121 432//116 
f 432//116 435//121 396//70 
f 429//120 436//122 435//121 
f 429//119 437//123 436//122 
f 434//118 437//123 429//119 
f 434//118 438//124 437//123 
f 439//125 440//126 441//127 
f 439//125 441//127 413//91 
f 413//91 441//127 414//92 
f 442//128 439//125 413//91 
f 443//129 442//128 413//130 
f 438//124 443//129 413//131 
f 438//124 413//131 437//123 
f 437//123 404//132 436//122 
f 436//122 404//133 435//121 
f 435//121 404//133 397//71 
f 435//121 397//71 396//70 
f 366//31 388//58 444//134 
f 366//31 444//134 445//135 
f 363//27 366//31 445//135 
f 445//135 444//134 446//136 
f 360//23 363//27 447//137 
f 445//135 446//136 448//138 
f 358//19 360//23 447//139 
f 445//135 448//138 449//140 
f 356//16 358//19 450//141 
f 451//142 452//143 449//140 
f 353//12 356//16 450//144 
f 453//145 452//146 451//142 
f 352//10 353//12 454//147 
f 455//148 456//149 453//145 
f 354//13 352//10 454//147 
f 354//13 454//147 457//150 
f 457//150 454//249 458//151 
f 458//151 454//249 459//152 
f 459//152 460//153 461//154 
f 460//155 462//156 461//154 
f 419//100 456//149 455//148 
f 419//100 417//97 456//149 
f 417//97 416//95 463//157 
f 416//95 415//93 463//158 
f 415//93 411//89 463//159 
f 411//89 409//85 464//160 
f 409//85 406//82 464//161 
f 460//162 465//163 462//156 
f 406//82 403//79 460//162 
f 460//162 466//164 465//163 
f 403//79 466//164 460//162 
f 403//79 402//78 466//164 
f 390//61 391//63 467//165 
f 390//61 467//165 468//166 
f 389//59 390//61 468//166 
f 468//166 467//165 469//167 
f 383//51 389//59 470//168 
f 468//166 469//167 471//169 
f 384//52 383//51 470//170 
f 468//166 471//169 472//171 
f 385//54 384//52 473//172 
f 474//173 475//174 472//171 
f 386//56 385//54 473//175 
f 476//176 475//177 474//173 
f 387//57 386//56 477//178 
f 478//179 479//180 476//176 
f 388//58 387//57 477//178 
f 388//58 477//178 444//134 
f 444//134 480//181 446//136 
f 446//136 480//181 448//138 
f 448//138 481//182 449//140 
f 481//183 451//142 449//140 
f 430//113 479//180 478//179 
f 430//113 428//111 479//180 
f 428//111 425//107 482//184 
f 425//107 424//105 482//185 
f 424//105 423//104 482//186 
f 423//104 421//102 483//187 
f 421//102 420//101 483//188 
f 481//189 453//145 451//142 
f 420//101 418//99 481//189 
f 481//189 455//148 453//145 
f 418//99 455//148 481//189 
f 418//99 419//100 455//148 
f 394//67 373//40 484//190 
f 394//67 484//190 485//191 
f 393//65 394//67 485//191 
f 485//191 484//190 486//192 
f 392//64 393//65 485//193 
f 485//194 486//192 487//195 
f 391//63 392//64 485//193 
f 391//63 485//193 467//165 
f 488//196 487//195 489//197 
f 467//165 490//198 469//167 
f 491//199 488//200 489//197 
f 469//167 490//198 471//169 
f 492//201 493//202 491//199 
f 471//169 494//203 472//171 
f 495//204 493//205 492//201 
f 494//206 474//173 472//171 
f 438//124 496//207 495//204 
f 438//124 434//118 496//207 
f 494//208 476//176 474//173 
f 434//118 433//117 496//209 
f 496//209 478//179 476//176 
f 433//117 431//114 496//209 
f 431//114 478//179 496//209 
f 431//114 430//113 478//179 
f 376//44 378//46 497//210 
f 376//44 497//210 498//213 
f 375//43 376//44 498//213 
f 498//213 497//210 499//212 
f 374//41 375//43 498//213 
f 500//216 499//212 501//214 
f 373//40 374//41 498//215 
f 373//40 498//215 484//190 
f 500//216 501//214 502//217 
f 484//190 498//218 486//192 
f 503//219 500//220 502//217 
f 486//192 504//221 487//195 
f 505//222 500//223 503//219 
f 487//195 504//224 489//197 
f 506//225 507//226 505//222 
f 504//227 491//199 489//197 
f 440//126 507//226 506//225 
f 440//126 439//125 507//226 
f 507//228 492//201 491//199 
f 439//125 442//128 507//226 
f 507//229 495//204 492//201 
f 442//128 443//129 507//229 
f 443//129 495//204 507//229 
f 443//129 438//124 495//204 
f 355//14 354//13 457//150 
f 355//14 457//150 508//230 
f 357//17 355//14 508//230 
f 508//230 457//150 458//151 
f 359//20 357//17 509//231 
f 508//230 458//151 459//152 
f 361//24 359//20 509//232 
f 510//233 459//152 461//154 
f 364//28 361//24 511//234 
f 462//156 510//235 461//154 
f 367//32 364//28 511//236 
f 465//163 510//237 462//156 
f 377//45 367//32 512//238 
f 466//164 513//239 465//163 
f 378//46 377//45 512//238 
f 378//46 512//238 497//210 
f 497//210 512//240 499//212 
f 499//212 512//240 501//214 
f 501//214 514//241 502//217 
f 514//242 503//219 502//217 
f 402//78 513//239 466//164 
f 402//78 400//75 513//239 
f 400//75 401//77 515//243 
f 401//77 405//81 515//244 
f 405//81 408//84 515//245 
f 408//84 410//88 516//246 
f 410//88 414//92 516//247 
f 514//248 505//222 503//219 
f 414//92 441//127 514//248 
f 514//248 506//225 505//222 
f 441//127 506//225 514//248 
f 441//127 440//126 506//225 
f 517//1 518//2 519//3 
f 520//4 518//2 517//1 
f 517//1 519//3 521//5 
f 518//2 522//6 519//3 
f 523//7 521//5 519//3 
f 520//8 524//9 518//2 
f 518//2 524//9 522//6 
f 525//10 520//11 526//12 
f 527//13 520//11 525//10 
f 527//13 528//14 520//11 
f 526//12 521//15 529//16 
f 528//14 530//17 520//11 
f 529//16 521//18 531//19 
f 530//17 532//20 520//21 
f 521//22 533//23 531//19 
f 532//20 534//24 535//25 
f 521//26 536//27 533//23 
f 534//24 537//28 535//29 
f 538//30 539//31 536//27 
f 537//28 540//32 541//33 
f 524//9 542//34 543//35 
f 524//9 543//35 522//6 
f 542//34 544//36 543//35 
f 542//37 545//38 544//36 
f 542//39 546//40 545//38 
f 542//39 547//41 546//40 
f 542//42 548//43 547//41 
f 541//33 549//44 548//43 
f 540//32 550//45 541//33 
f 550//45 549//44 541//33 
f 550//45 551//46 549//44 
f 552//47 519//3 522//6 
f 553//48 552//47 522//6 
f 554//49 552//47 553//48 
f 555//50 523//7 552//47 
f 552//47 523//7 519//3 
f 556//51 557//52 555//53 
f 557//52 558//54 555//55 
f 558//54 559//56 538//30 
f 559//56 560//57 538//30 
f 560//57 539//31 538//30 
f 560//57 561//58 539//31 
f 562//59 556//51 555//60 
f 563//61 562//59 554//62 
f 564//63 563//61 554//62 
f 564//63 554//62 565//64 
f 565//64 554//62 566//65 
f 566//65 554//66 567//67 
f 554//68 553//48 543//35 
f 553//48 522//6 543//35 
f 554//68 543//35 544//36 
f 554//66 544//36 545//38 
f 567//67 554//66 545//38 
f 567//67 545//38 546//40 
f 568//69 569//70 570//71 
f 571//72 568//69 570//71 
f 571//73 572//74 568//69 
f 568//69 572//74 569//70 
f 573//75 571//76 574//77 
f 575//78 571//76 573//75 
f 575//78 576//79 571//76 
f 574//77 577//80 578//81 
f 576//79 579//82 571//76 
f 578//81 580//83 581//84 
f 579//82 582//85 571//86 
f 580//87 583//88 581//84 
f 582//85 584//89 585//90 
f 586//91 587//92 583//88 
f 584//89 588//93 585//94 
f 588//93 589//95 585//96 
f 589//95 590//97 585//98 
f 590//97 591//99 585//98 
f 590//97 592//100 591//99 
f 585//98 591//99 593//101 
f 585//98 593//101 594//102 
f 595//103 594//102 596//104 
f 597//105 595//106 596//104 
f 598//107 595//108 597//105 
f 572//74 599//109 600//110 
f 572//74 600//110 569//70 
f 601//111 602//112 598//107 
f 603//113 602//112 601//111 
f 603//113 604//114 602//112 
f 602//115 605//116 600//110 
f 605//116 569//70 600//110 
f 604//114 606//117 602//112 
f 606//117 607//118 602//119 
f 602//120 608//121 605//116 
f 605//116 608//121 569//70 
f 602//120 609//122 608//121 
f 602//119 610//123 609//122 
f 607//118 610//123 602//119 
f 607//118 611//124 610//123 
f 612//125 613//126 614//127 
f 612//125 614//127 586//91 
f 586//91 614//127 587//92 
f 615//128 612//125 586//91 
f 616//129 615//128 586//130 
f 611//124 616//129 586//131 
f 611//124 586//131 610//123 
f 610//123 577//132 609//122 
f 609//122 577//133 608//121 
f 608//121 577//133 570//71 
f 608//121 570//71 569//70 
f 539//31 561//58 617//134 
f 539//31 617//134 618//135 
f 536//27 539//31 618//135 
f 618//135 617//134 619//136 
f 533//23 536//27 620//137 
f 618//135 619//136 621//138 
f 531//19 533//23 620//139 
f 618//135 621//138 622//140 
f 529//16 531//19 620//141 
f 623//142 624//143 622//140 
f 526//12 529//16 620//144 
f 625//145 624//146 623//142 
f 525//10 526//12 626//147 
f 627//148 628//149 625//145 
f 527//13 525//10 626//147 
f 527//13 626//147 629//150 
f 629//150 626//147 630//151 
f 630//151 626//147 631//152 
f 631//152 632//153 633//154 
f 632//155 634//156 633//154 
f 592//100 628//149 627//148 
f 592//100 590//97 628//149 
f 590//97 589//95 635//157 
f 589//95 588//93 635//158 
f 588//93 584//89 635//159 
f 584//89 582//85 636//160 
f 582//85 579//82 636//161 
f 632//162 637//163 634//156 
f 579//82 576//79 632//162 
f 632//162 638//164 637//163 
f 576//79 638//164 632//162 
f 576//79 575//78 638//164 
f 563//61 564//63 639//165 
f 563//61 639//165 640//168 
f 562//59 563//61 640//168 
f 640//168 639//165 641//167 
f 556//51 562//59 640//168 
f 640//250 641//167 642//169 
f 557//52 556//51 643//170 
f 640//250 642//169 644//171 
f 558//54 557//52 643//172 
f 645//173 646//174 644//171 
f 559//56 558//54 643//175 
f 647//176 646//177 645//173 
f 560//57 559//56 648//178 
f 649//179 650//180 647//176 
f 561//58 560//57 648//178 
f 561//58 648//178 617//134 
f 617//134 651//181 619//136 
f 619//136 651//181 621//138 
f 621//138 652//182 622//140 
f 652//183 623//142 622//140 
f 603//113 650//180 649//179 
f 603//113 601//111 650//180 
f 601//111 598//107 653//184 
f 598//107 597//105 653//185 
f 597//105 596//104 653//186 
f 596//104 594//102 654//187 
f 594//102 593//101 654//188 
f 652//189 625//145 623//142 
f 593//101 591//99 652//189 
f 652//189 627//148 625//145 
f 591//99 627//148 652//189 
f 591//99 592//100 627//148 
f 567//67 546//40 655//190 
f 567//67 655//190 656//191 
f 566//65 567//67 656//191 
f 656//191 655//190 657//192 
f 565//64 566//65 656//193 
f 656//194 657//192 658//195 
f 564//63 565//64 656//193 
f 564//63 656//193 639//165 
f 659//196 658//195 660//197 
f 639//165 661//198 641//167 
f 662//199 659//200 660//197 
f 641//167 661//198 642//169 
f 663//201 664//202 662//199 
f 642//169 665//203 644//171 
f 666//204 664//205 663//201 
f 665//206 645//173 644//171 
f 611//124 667//207 666//204 
f 611//124 607//118 667//207 
f 665//208 647//176 645//173 
f 607//118 606//117 667//209 
f 667//209 649//179 647//176 
f 606//117 604//114 667//209 
f 604//114 649//179 667//209 
f 604//114 603//113 649//179 
f 549//44 551//46 668//210 
f 549//44 668//210 669//211 
f 548//43 549//44 669//211 
f 669//211 668//210 670//212 
f 547//41 548//43 669//213 
f 669//211 670//212 671//214 
f 546//40 547//41 669//215 
f 546//40 669//215 655//190 
f 672//216 671//214 673//217 
f 655//190 672//218 657//192 
f 674//219 672//220 673//217 
f 657//192 672//221 658//195 
f 675//222 672//223 674//219 
f 658//195 676//224 660//197 
f 677//225 678//226 675//222 
f 676//227 662//199 660//197 
f 613//126 678//226 677//225 
f 613//126 612//125 678//226 
f 678//228 663//201 662//199 
f 612//125 615//128 678//226 
f 678//229 666//204 663//201 
f 615//128 616//129 678//229 
f 616//129 666//204 678//229 
f 616//129 611//124 666//204 
f 528//14 527//13 629//150 
f 528//14 629//150 679//230 
f 530//17 528//14 679//230 
f 679//230 629//150 630//151 
f 532//20 530//17 680//231 
f 679//230 630//151 631//152 
f 534//24 532//20 680//232 
f 681//233 631//152 633//154 
f 537//28 534//24 680//234 
f 634//156 681//235 633//154 
f 540//32 537//28 680//236 
f 637//163 681//237 634//156 
f 550//45 540//32 682//238 
f 638//164 683//239 637//163 
f 551//46 550//45 682//238 
f 551//46 682//238 668//210 
f 668//210 682//240 670//212 
f 670//212 682//240 671//214 
f 671//214 684//241 673//217 
f 684//242 674//219 673//217 
f 575//78 683//239 638//164 
f 575//78 573//75 683//239 
f 573//75 574//77 685//243 
f 574//77 578//81 685//244 
f 578//81 581//84 685//245 
f 581//84 583//88 686//246 
f 583//88 587//92 686//247 
f 684//248 675//222 674//219 
f 587//92 614//127 684//248 
f 684//248 677//225 675//222 
f 614//127 677//225 684//248 
f 614//127 613//126 677//225 
f 22//30 20//27 5//26 
f 22//251 5//252 7//7 
f 365//30 363//27 348//26 
f 365//251 348//252 350//7 
f 58//77 55//76 61//80 
f 55//72 54//71 61//253 
f 409//85 412//90 398//86 
f 398//73 426//254 399//74 
f 538//30 536//27 521//26 
f 538//251 521//252 523//7 
f 196//251 179//252 181//7 
f 196//30 194//27 179//26 
f 239//85 242//90 228//86 
f 228//73 256//254 229//74 
f 574//77 571//76 577//80 
f 571//72 570//71 577//253 
f 83//109 79//255 84//110 
f 69//98 78//102 79//103 
f 16//20 19//25 4//21 
f 4//8 25//256 8//9 
f 359//20 362//25 347//21 
f 347//8 368//256 351//9 
f 599//109 595//255 600//110 
f 585//98 594//102 595//103 
f 190//20 193//25 178//21 
f 178//8 193//256 182//9 
f 532//20 535//25 520//21 
f 520//8 535//256 524//9 
f 426//109 422//255 427//110 
f 412//98 421//102 422//103 
f 242//98 251//102 252//103 
f 256//109 252//255 257//110 
f 66//85 69//90 55//86 
f 55//73 83//254 56//74 
f 38//49 39//50 36//47 
f 46//59 39//60 38//62 
f 381//49 382//50 379//47 
f 389//59 382//60 381//62 
f 582//85 585//90 571//86 
f 571//73 599//254 572//74 
f 554//49 555//50 552//47 
f 562//59 555//60 554//62 
f 211//49 212//50 209//47 
f 219//59 212//60 211//62 
f 4//11 1//1 5//15 
f 10//12 4//11 5//15 
f 347//11 344//1 348//15 
f 353//12 347//11 348//15 
f 520//11 517//1 521//15 
f 526//12 520//11 521//15 
f 184//12 178//11 179//15 
f 178//11 175//1 179//15 
f 401//77 398//76 404//80 
f 398//72 397//71 404//253 
f 486//192 498//218 504//221 
f 505//222 507//226 500//223 
f 228//72 227//71 234//253 
f 231//77 228//76 234//80 
f 157//214 170//240 172//241 
f 122//163 171//239 168//237 
f 501//214 512//240 514//241 
f 465//163 513//239 510//237 
f 621//138 651//181 652//182 
f 647//176 650//180 646//177 
f 671//214 682//240 684//241 
f 679//230 631//152 681//233 
f 328//214 339//240 341//241 
f 294//163 340//239 337//237 
f 459//152 454//249 460//153 
f 445//135 449//140 452//143 
f 116//152 111//147 117//153 
f 102//135 106//140 109//143 
f 631//152 626//147 632//153 
f 618//135 622//140 624//143 
f 288//152 283//249 289//153 
f 275//135 279//140 281//143 
f 105//138 137//181 138//182 
f 125//166 129//171 132//174 
f 448//138 480//181 481//182 
f 468//166 472//171 475//174 
f 278//138 308//181 309//182 
f 297//166 301//171 304//174 
f 513//257 687//258 510//259 
f 361//24 509//232 511//234 
f 171//257 688//258 168//259 
f 18//24 167//232 169//234 
f 689//260 690//261 691//262 
f 581//84 686//246 685//245 
f 340//257 692//258 337//259 
f 192//24 336//232 338//234 
f 693//263 137//264 694//265 
f 80//104 140//187 139//186 
f 695//263 480//264 696//265 
f 423//104 483//187 482//186 
f 697//266 698//267 699//268 
f 68//89 121//160 120//159 
f 411//89 464//160 463//159 
f 700//266 701//267 702//268 
f 703//263 308//264 704//265 
f 253//104 311//187 310//186 
f 65//84 174//246 173//245 
f 173//269 174//270 705//261 
f 408//84 516//246 515//245 
f 515//269 516//270 706//261 
f 640//250 644//171 646//174 
f 559//56 643//175 648//178 
f 707//266 708//267 709//268 
f 241//89 293//160 292//159 
f 710//266 711//267 712//268 
f 584//89 636//160 635//159 
f 342//269 343//270 713//261 
f 238//84 343//246 342//245 
f 10//12 107//144 111//147 
f 699//271 102//272 109//273 
f 353//12 450//144 454//147 
f 702//271 445//272 452//273 
f 526//12 620//144 626//147 
f 712//271 618//272 624//273 
f 184//12 277//144 283//147 
f 709//271 275//272 281//273 
f 134//274 714//275 694//276 
f 41//52 127//170 130//172 
f 384//52 470//170 473//172 
f 477//274 715//275 696//276 
f 148//199 150//202 145//200 
f 153//209 133//176 151//208 
f 491//199 493//202 488//200 
f 496//209 476//176 494//208 
f 691//277 680//278 681//279 
f 540//32 680//236 682//238 
f 162//222 165//226 158//223 
f 144//195 160//221 163//224 
f 302//274 299//275 704//276 
f 214//52 299//170 302//172 
f 662//199 664//202 659//200 
f 667//209 647//176 665//208 
f 324//209 305//176 322//208 
f 319//199 321//202 316//200 
f 596//104 654//187 653//186 
f 653//280 652//263 716//281 
f 476//176 479//180 475//177 
f 482//280 695//263 696//281 
f 133//176 136//180 132//177 
f 139//280 693//263 694//281 
f 335//228 319//199 332//227 
f 333//222 335//226 329//223 
f 675//222 678//226 672//223 
f 658//195 672//221 676//224 
f 305//176 307//180 304//177 
f 310//280 703//263 704//281 
f 652//263 651//264 716//265 
f 648//274 717//275 716//276 
f 367//32 511//236 512//238 
f 706//282 511//283 718//284 
f 705//282 169//283 719//284 
f 24//32 169//236 170//238 
f 198//32 338//236 339//238 
f 713//282 338//283 720//284 
f 691//283 681//258 689//284 
f 637//163 683//239 681//237 
f 493//202 490//285 488//200 
f 467//165 485//193 490//198 
f 124//165 142//193 147//198 
f 150//202 147//285 145//200 
f 314//192 326//218 332//221 
f 326//211 328//214 329//216 
f 463//286 701//267 700//266 
f 417//97 463//157 456//149 
f 120//286 698//267 697//266 
f 74//97 120//157 113//149 
f 639//165 656//193 661//198 
f 664//202 661//285 659//200 
f 321//202 318//285 316//200 
f 296//165 313//193 318//198 
f 507//226 504//287 500//223 
f 507//228 491//199 504//227 
f 444//134 477//178 480//181 
f 477//288 696//276 480//289 
f 101//134 134//178 137//181 
f 134//288 694//276 137//289 
f 635//286 711//267 710//266 
f 590//97 635//157 628//149 
f 247//97 292//157 285//149 
f 292//286 708//267 707//266 
f 111//147 698//290 117//153 
f 120//286 121//291 698//267 
f 454//249 701//290 460//153 
f 463//286 464//291 701//267 
f 302//288 704//276 308//289 
f 274//134 302//178 308//181 
f 94//123 70//131 61//132 
f 62//81 61//80 64//83 
f 405//81 404//80 407//83 
f 437//123 413//131 404//132 
f 170//292 169//283 705//282 
f 170//240 705//293 172//241 
f 512//292 511//283 706//282 
f 512//240 706//293 514//241 
f 682//240 690//293 684//241 
f 685//269 686//270 690//261 
f 626//147 711//290 632//153 
f 635//286 636//291 711//267 
f 283//249 708//290 289//153 
f 292//286 293//291 708//267 
f 479//294 696//295 475//296 
f 715//297 475//298 696//299 
f 714//297 132//298 694//299 
f 136//294 694//295 132//296 
f 610//123 586//131 577//132 
f 578//81 577//80 580//83 
f 267//123 243//131 234//132 
f 235//81 234//80 237//83 
f 429//115 427//110 422//255 
f 425//107 429//112 422//108 
f 86//115 84//110 79//255 
f 82//107 86//112 79//108 
f 339//240 713//293 341//241 
f 339//292 338//283 713//282 
f 110//145 113//149 109//146 
f 699//271 109//273 697//300 
f 453//145 456//149 452//146 
f 702//271 452//273 700//300 
f 307//294 704//295 304//296 
f 299//297 304//298 704//299 
f 717//297 646//298 716//299 
f 650//294 716//295 646//296 
f 173//269 705//261 719//260 
f 57//75 173//243 171//239 
f 515//269 706//261 718//260 
f 400//75 515//243 513//239 
f 508//230 459//152 510//233 
f 687//279 508//301 510//259 
f 688//279 166//301 168//259 
f 166//230 116//152 168//233 
f 598//107 602//112 595//108 
f 602//115 600//110 595//255 
f 255//107 259//112 252//108 
f 259//115 257//110 252//255 
f 107//302 102//272 699//271 
f 20//27 102//135 104//137 
f 363//27 445//135 447//137 
f 450//302 445//272 702//271 
f 625//145 628//149 624//146 
f 712//271 624//273 710//300 
f 282//145 285//149 281//146 
f 709//271 281//273 707//300 
f 230//75 342//243 340//239 
f 342//269 713//261 720//260 
f 685//269 690//261 689//260 
f 573//75 685//243 683//239 
f 336//230 288//152 337//233 
f 692//279 336//301 337//259 
f 556//51 640//168 643//170 
f 717//303 640//250 646//174 
f 111//304 107//305 699//306 
f 111//307 699//308 698//309 
f 454//304 450//305 702//306 
f 454//307 702//308 701//309 
f 141//190 155//215 160//218 
f 155//211 157//214 158//216 
f 482//280 483//310 695//263 
f 420//101 481//189 483//188 
f 139//280 140//310 693//263 
f 77//101 138//189 140//188 
f 498//218 500//311 504//221 
f 498//213 499//212 500//216 
f 194//27 275//135 277//137 
f 277//302 275//272 709//271 
f 620//302 618//272 712//271 
f 536//27 618//135 620//137 
f 389//59 468//166 470//168 
f 715//297 468//303 475//298 
f 46//59 125//166 127//168 
f 714//297 125//303 132//298 
f 165//226 163//287 158//223 
f 165//228 148//199 163//227 
f 25//37 29//39 28//38 
f 24//32 29//42 19//33 
f 368//37 372//39 371//38 
f 367//32 372//42 362//33 
f 283//307 709//308 708//309 
f 283//304 277//305 709//306 
f 626//304 620//305 712//306 
f 626//307 712//308 711//309 
f 655//190 669//215 672//218 
f 669//211 671//214 672//216 
f 250//101 309//189 311//188 
f 310//280 311//310 703//263 
f 593//101 652//189 654//188 
f 653//280 654//310 652//263 
f 219//59 297//166 299//168 
f 299//297 297//303 304//298 
f 678//226 676//287 672//223 
f 678//228 662//199 676//227 
f 335//312 332//227 329//287 
f 326//218 329//311 332//221 
f 198//32 202//42 193//33 
f 193//37 202//39 201//38 
f 535//256 542//34 524//9 
f 541//33 548//43 542//42 
f 385//54 365//30 382//55 
f 382//50 365//251 350//7 
f 39//50 22//251 7//7 
f 42//54 22//30 39//55 
f 55//86 69//90 83//254 
f 83//313 69//98 79//103 
f 398//86 412//90 426//254 
f 426//313 412//98 422//103 
f 682//314 691//282 690//315 
f 680//236 691//277 682//292 
f 471//169 490//198 494//203 
f 493//316 494//203 490//285 
f 128//169 147//198 151//203 
f 150//316 151//203 147//285 
f 212//50 196//251 181//7 
f 215//54 196//30 212//55 
f 555//50 538//251 523//7 
f 558//54 538//30 555//55 
f 85//111 139//184 136//180 
f 136//317 139//280 694//281 
f 428//111 482//184 479//180 
f 479//317 482//280 696//281 
f 571//86 585//90 599//254 
f 599//313 585//98 595//103 
f 228//86 242//90 256//254 
f 256//313 242//98 252//103 
f 173//243 719//318 171//319 
f 171//257 719//320 688//258 
f 515//243 718//318 513//319 
f 513//257 718//320 687//258 
f 113//321 697//322 109//323 
f 113//324 120//286 697//266 
f 456//324 463//286 700//266 
f 456//321 700//322 452//323 
f 414//92 514//248 516//247 
f 516//325 514//242 706//326 
f 71//92 172//248 174//247 
f 174//325 172//242 705//326 
f 464//327 460//155 701//328 
f 406//82 460//162 464//161 
f 63//82 117//162 121//161 
f 121//327 117//155 698//328 
f 642//169 661//198 665//203 
f 664//316 665//203 661//285 
f 321//316 322//203 318//285 
f 300//169 318//198 322//203 
f 258//111 310//184 307//180 
f 307//317 310//280 704//281 
f 601//111 653//184 650//180 
f 650//317 653//280 716//281 
f 413//91 410//88 407//87 
f 413//131 407//329 404//132 
f 70//91 67//88 64//87 
f 70//131 64//329 61//132 
f 342//243 720//318 340//319 
f 340//257 720//320 692//258 
f 685//243 689//318 683//319 
f 683//257 689//320 681//258 
f 628//321 710//322 624//323 
f 628//324 635//286 710//266 
f 285//324 292//286 707//266 
f 285//321 707//322 281//323 
f 587//92 684//248 686//247 
f 686//325 684//242 690//326 
f 343//325 341//242 713//326 
f 244//92 341//248 343//247 
f 579//82 632//162 636//161 
f 636//327 632//155 711//328 
f 236//82 289//162 293//161 
f 293//327 289//155 708//328 
f 680//330 679//230 681//233 
f 530//17 679//230 680//231 
f 153//209 151//208 150//331 
f 152//204 153//207 150//205 
f 495//204 496//207 493//205 
f 496//209 494//208 493//331 
f 643//175 717//332 648//274 
f 643//170 640//168 717//333 
f 243//91 240//88 237//87 
f 243//131 237//329 234//132 
f 586//91 583//88 580//87 
f 586//131 580//329 577//132 
f 485//194 487//195 488//196 
f 485//334 488//196 490//335 
f 142//194 144//195 145//196 
f 142//334 145//196 147//335 
f 169//283 688//258 719//284 
f 169//278 166//301 688//279 
f 511//278 508//301 687//279 
f 511//283 687//258 718//284 
f 667//209 665//208 664//331 
f 666//204 667//207 664//205 
f 323//204 324//207 321//205 
f 324//209 322//208 321//331 
f 695//336 481//182 480//264 
f 483//337 481//183 695//336 
f 140//337 138//183 693//336 
f 693//336 138//182 137//264 
f 617//134 648//178 651//181 
f 648//288 716//276 651//289 
f 160//338 155//211 158//216 
f 160//311 158//220 163//339 
f 537//28 541//33 535//29 
f 535//29 541//33 542//340 
f 656//194 658//195 659//196 
f 656//334 659//196 661//335 
f 313//194 315//195 316//196 
f 313//334 316//196 318//335 
f 15//19 104//139 107//141 
f 104//139 102//341 107//302 
f 358//19 447//139 450//141 
f 447//139 445//341 450//302 
f 4//21 19//25 25//256 
f 19//33 29//42 25//340 
f 362//33 372//42 368//340 
f 347//21 362//25 368//256 
f 134//274 127//332 714//275 
f 127//342 125//303 714//297 
f 477//274 470//332 715//275 
f 470//342 468//303 715//297 
f 338//283 692//258 720//284 
f 338//278 336//301 692//279 
f 167//232 166//330 169//278 
f 14//17 166//230 167//231 
f 357//17 508//230 509//231 
f 509//232 508//330 511//278 
f 386//56 473//175 477//178 
f 473//175 470//332 477//274 
f 43//56 130//175 134//178 
f 130//175 127//332 134//274 
f 311//337 309//183 703//336 
f 703//336 309//182 308//264 
# 0 polygons - 1424 triangles

